<?xml version="1.0" encoding="UTF-8" standalone="no"?>
<svg
   xmlns:dc="http://purl.org/dc/elements/1.1/"
   xmlns:cc="http://creativecommons.org/ns#"
   xmlns:rdf="http://www.w3.org/1999/02/22-rdf-syntax-ns#"
   xmlns:svg="http://www.w3.org/2000/svg"
   xmlns="http://www.w3.org/2000/svg"
   viewBox="0 0 175 320"
   height="320"
   width="175"
   xml:space="preserve"
   version="1.1"
   id="svg4041"><metadata
     id="metadata4047"><rdf:RDF><cc:Work
         rdf:about=""><dc:format>image/svg+xml</dc:format><dc:type
           rdf:resource="http://purl.org/dc/dcmitype/StillImage" /><dc:title></dc:title></cc:Work></rdf:RDF></metadata><defs
     id="defs4045"><clipPath
       id="clipPath4055"
       clipPathUnits="userSpaceOnUse"><path
         id="path4057"
         d="M 0,256 140,256 140,0 0,0 0,256 Z" /></clipPath></defs><g
     transform="matrix(1.25,0,0,-1.25,0,320)"
     id="g4049"><g
       transform="matrix(0.9375,0,0,0.9375,4.375,8)"
       id="g4051"><g
         clip-path="url(#clipPath4055)"
         id="g4053"><g
           transform="translate(70,0)"
           id="g4059"><path
             id="path4061"
             style="fill:#000000;fill-opacity:1;fill-rule:nonzero;stroke:none"
             d="m 0,0 c -16.994,0 -33.024,1.072 -45.136,3.019 -12.401,1.993 -23.877,5.029 -23.877,13.678 l 0,222.606 c 0,8.649 11.476,11.685 23.877,13.678 C -33.023,254.928 -16.993,256 0,256 c 16.993,0 33.023,-1.072 45.136,-3.019 12.401,-1.993 23.877,-5.029 23.877,-13.678 l 0,-222.606 C 69.013,8.048 57.537,5.012 45.136,3.019 33.024,1.072 16.994,0 0,0" /></g><g
           transform="translate(70,249.3209)"
           id="g4063"><path
             id="path4065"
             style="fill:#33322a;fill-opacity:1;fill-rule:nonzero;stroke:none"
             d="m 0,0 c -34.426,0 -62.334,-4.485 -62.334,-10.018 l 0,-222.607 c 0,-5.533 27.908,-10.018 62.334,-10.018 34.426,0 62.334,4.485 62.334,10.018 l 0,222.607 C 62.334,-4.485 34.426,0 0,0" /></g><g
           transform="translate(74.2669,240.3607)"
           id="g4067"><path
             id="path4069"
             style="fill:#000000;fill-opacity:1;fill-rule:nonzero;stroke:none"
             d="m 0,0 c 0,-2.357 -1.91,-4.267 -4.267,-4.267 -2.356,0 -4.267,1.91 -4.267,4.267 0,2.357 1.911,4.267 4.267,4.267 C -1.91,4.267 0,2.357 0,0" /></g><path
           id="path4071"
           style="fill:#107d8f;fill-opacity:1;fill-rule:nonzero;stroke:none"
           d="m 126.212,35.241 -112.424,0 0,195.906 112.424,0 0,-195.906 z" /><g
           transform="translate(126.2118,35.2408)"
           id="g4073"><path
             id="path4075"
             style="fill:#28a7ae;fill-opacity:1;fill-rule:nonzero;stroke:none"
             d="m 0,0 -112.424,0 0,49.431 L 0,118.444 0,0 Z" /></g><g
           transform="translate(126.2118,35.2408)"
           id="g4077"><path
             id="path4079"
             style="fill:#56c4bf;fill-opacity:1;fill-rule:nonzero;stroke:none"
             d="m 0,0 -112.424,0 0,40.526 L 0,75.589 0,0 Z" /></g><path
           id="path4081"
           style="fill:#87bec7;fill-opacity:1;fill-rule:nonzero;stroke:none"
           d="m 119.081,198.765 -100.179,0 0,15.583 100.179,0 0,-15.583 z" /><path
           id="path4083"
           style="fill:#87bec7;fill-opacity:1;fill-rule:nonzero;stroke:none"
           d="m 118.478,220.749 -19.479,0 0,5.705 19.479,0 0,-5.705 z" /><g
           transform="translate(71.9321,39.2203)"
           id="g4085"><path
             id="path4087"
             style="fill:#aae1df;fill-opacity:1;fill-rule:nonzero;stroke:none"
             d="m 0,0 -3.864,0 c -0.829,0 -1.5,0.672 -1.5,1.5 l 0,3.864 c 0,0.829 0.671,1.5 1.5,1.5 l 3.864,0 c 0.828,0 1.5,-0.671 1.5,-1.5 L 1.5,1.5 C 1.5,0.672 0.828,0 0,0" /></g><g
           transform="translate(42.9913,39.2203)"
           id="g4089"><path
             id="path4091"
             style="fill:#aae1df;fill-opacity:1;fill-rule:nonzero;stroke:none"
             d="m 0,0 -3.864,0 c -0.829,0 -1.5,0.672 -1.5,1.5 l 0,3.864 c 0,0.829 0.671,1.5 1.5,1.5 l 3.864,0 c 0.828,0 1.5,-0.671 1.5,-1.5 L 1.5,1.5 C 1.5,0.672 0.828,0 0,0" /></g><g
           transform="translate(100.8728,39.2203)"
           id="g4093"><path
             id="path4095"
             style="fill:#aae1df;fill-opacity:1;fill-rule:nonzero;stroke:none"
             d="m 0,0 -3.864,0 c -0.829,0 -1.5,0.672 -1.5,1.5 l 0,3.864 c 0,0.829 0.671,1.5 1.5,1.5 l 3.864,0 c 0.828,0 1.5,-0.671 1.5,-1.5 L 1.5,1.5 C 1.5,0.672 0.828,0 0,0" /></g><g
           transform="translate(76.5047,62.5028)"
           id="g4097"><path
             id="path4099"
             style="fill:#ffffff;fill-opacity:1;fill-rule:nonzero;stroke:none"
             d="m 0,0 c 0,-3.535 -2.866,-6.4 -6.4,-6.4 -3.535,0 -6.401,2.865 -6.401,6.4 0,3.535 2.866,6.4 6.401,6.4 C -2.866,6.4 0,3.535 0,0" /></g><g
           transform="translate(34.3404,56.9373)"
           id="g4101"><path
             id="path4103"
             style="fill:#34a853;fill-opacity:1;fill-rule:nonzero;stroke:none"
             d="m 0,0 -7.131,0 c -1.105,0 -2,0.895 -2,2 l 0,7.131 c 0,1.105 0.895,2 2,2 l 7.131,0 c 1.105,0 2,-0.895 2,-2 L 2,2 C 2,0.895 1.105,0 0,0" /></g><g
           transform="translate(54.0051,56.9373)"
           id="g4105"><path
             id="path4107"
             style="fill:#4285f4;fill-opacity:1;fill-rule:nonzero;stroke:none"
             d="m 0,0 -7.131,0 c -1.105,0 -2,0.895 -2,2 l 0,7.131 c 0,1.105 0.895,2 2,2 l 7.131,0 c 1.105,0 2,-0.895 2,-2 L 2,2 C 2,0.895 1.105,0 0,0" /></g><g
           transform="translate(93.3346,56.9373)"
           id="g4109"><path
             id="path4111"
             style="fill:#fbbc05;fill-opacity:1;fill-rule:nonzero;stroke:none"
             d="m 0,0 -7.131,0 c -1.105,0 -2,0.895 -2,2 l 0,7.131 c 0,1.105 0.895,2 2,2 l 7.131,0 c 1.105,0 2,-0.895 2,-2 L 2,2 C 2,0.895 1.105,0 0,0" /></g><g
           transform="translate(112.9994,56.9373)"
           id="g4113"><path
             id="path4115"
             style="fill:#ea4335;fill-opacity:1;fill-rule:nonzero;stroke:none"
             d="m 0,0 -7.131,0 c -1.105,0 -2,0.895 -2,2 l 0,7.131 c 0,1.105 0.895,2 2,2 l 7.131,0 c 1.105,0 2,-0.895 2,-2 L 2,2 C 2,0.895 1.105,0 0,0" /></g><g
           transform="translate(34.3404,83.3317)"
           id="g4117"><path
             id="path4119"
             style="fill:#ffffff;fill-opacity:1;fill-rule:nonzero;stroke:none"
             d="m 0,0 -7.131,0 c -1.105,0 -2,0.895 -2,2 l 0,7.131 c 0,1.105 0.895,2 2,2 l 7.131,0 c 1.105,0 2,-0.895 2,-2 L 2,2 C 2,0.895 1.105,0 0,0" /></g><g
           transform="translate(54.0051,83.3317)"
           id="g4121"><path
             id="path4123"
             style="fill:#ea4335;fill-opacity:1;fill-rule:nonzero;stroke:none"
             d="m 0,0 -7.131,0 c -1.105,0 -2,0.895 -2,2 l 0,7.131 c 0,1.105 0.895,2 2,2 l 7.131,0 c 1.105,0 2,-0.895 2,-2 L 2,2 C 2,0.895 1.105,0 0,0" /></g><g
           transform="translate(93.3346,83.3317)"
           id="g4125"><path
             id="path4127"
             style="fill:#4285f4;fill-opacity:1;fill-rule:nonzero;stroke:none"
             d="m 0,0 -7.131,0 c -1.105,0 -2,0.895 -2,2 l 0,7.131 c 0,1.105 0.895,2 2,2 l 7.131,0 c 1.105,0 2,-0.895 2,-2 L 2,2 C 2,0.895 1.105,0 0,0" /></g><g
           transform="translate(73.6699,83.3317)"
           id="g4129"><path
             id="path4131"
             style="fill:#fbbc05;fill-opacity:1;fill-rule:nonzero;stroke:none"
             d="m 0,0 -7.131,0 c -1.105,0 -2,0.895 -2,2 l 0,7.131 c 0,1.105 0.895,2 2,2 l 7.131,0 c 1.105,0 2,-0.895 2,-2 L 2,2 C 2,0.895 1.105,0 0,0" /></g><g
           transform="translate(112.9994,83.3317)"
           id="g4133"><path
             id="path4135"
             style="fill:#34a853;fill-opacity:1;fill-rule:nonzero;stroke:none"
             d="m 0,0 -7.131,0 c -1.105,0 -2,0.895 -2,2 l 0,7.131 c 0,1.105 0.895,2 2,2 l 7.131,0 c 1.105,0 2,-0.895 2,-2 L 2,2 C 2,0.895 1.105,0 0,0" /></g><g
           transform="translate(34.3404,106.7069)"
           id="g4137"><path
             id="path4139"
             style="fill:#4285f4;fill-opacity:1;fill-rule:nonzero;stroke:none"
             d="m 0,0 -7.131,0 c -1.105,0 -2,0.895 -2,2 l 0,7.131 c 0,1.105 0.895,2 2,2 l 7.131,0 c 1.105,0 2,-0.895 2,-2 L 2,2 C 2,0.895 1.105,0 0,0" /></g><g
           transform="translate(54.0051,106.7069)"
           id="g4141"><path
             id="path4143"
             style="fill:#fbbc05;fill-opacity:1;fill-rule:nonzero;stroke:none"
             d="m 0,0 -7.131,0 c -1.105,0 -2,0.895 -2,2 l 0,7.131 c 0,1.105 0.895,2 2,2 l 7.131,0 c 1.105,0 2,-0.895 2,-2 L 2,2 C 2,0.895 1.105,0 0,0" /></g><g
           transform="translate(93.3346,106.7069)"
           id="g4145"><path
             id="path4147"
             style="fill:#ea4335;fill-opacity:1;fill-rule:nonzero;stroke:none"
             d="m 0,0 -7.131,0 c -1.105,0 -2,0.895 -2,2 l 0,7.131 c 0,1.105 0.895,2 2,2 l 7.131,0 c 1.105,0 2,-0.895 2,-2 L 2,2 C 2,0.895 1.105,0 0,0" /></g><g
           transform="translate(73.6699,106.7069)"
           id="g4149"><path
             id="path4151"
             style="fill:#ffffff;fill-opacity:1;fill-rule:nonzero;stroke:none"
             d="m 0,0 -7.131,0 c -1.105,0 -2,0.895 -2,2 l 0,7.131 c 0,1.105 0.895,2 2,2 l 7.131,0 c 1.105,0 2,-0.895 2,-2 L 2,2 C 2,0.895 1.105,0 0,0" /></g><g
           transform="translate(112.9994,106.7069)"
           id="g4153"><path
             id="path4155"
             style="fill:#ffffff;fill-opacity:1;fill-rule:nonzero;stroke:none"
             d="m 0,0 -7.131,0 c -1.105,0 -2,0.895 -2,2 l 0,7.131 c 0,1.105 0.895,2 2,2 l 7.131,0 c 1.105,0 2,-0.895 2,-2 L 2,2 C 2,0.895 1.105,0 0,0" /></g><g
           transform="translate(34.3404,130.0821)"
           id="g4157"><path
             id="path4159"
             style="fill:#ea4335;fill-opacity:1;fill-rule:nonzero;stroke:none"
             d="m 0,0 -7.131,0 c -1.105,0 -2,0.895 -2,2 l 0,7.131 c 0,1.105 0.895,2 2,2 l 7.131,0 c 1.105,0 2,-0.895 2,-2 L 2,2 C 2,0.895 1.105,0 0,0" /></g><g
           transform="translate(112.9994,130.0821)"
           id="g4161"><path
             id="path4163"
             style="fill:#fbbc05;fill-opacity:1;fill-rule:nonzero;stroke:none"
             d="m 0,0 -7.131,0 c -1.105,0 -2,0.895 -2,2 l 0,7.131 c 0,1.105 0.895,2 2,2 l 7.131,0 c 1.105,0 2,-0.895 2,-2 L 2,2 C 2,0.895 1.105,0 0,0" /></g><g
           transform="translate(45.7083,185.4831)"
           id="g4165"><path
             id="path4167"
             style="fill:#ffffff;fill-opacity:1;fill-rule:nonzero;stroke:none"
             d="m 0,0 c -0.553,0 -1.002,-0.449 -1.002,-1.002 l 0,-12.244 0,-12.245 c 0,-0.553 0.449,-1.002 1.002,-1.002 0.553,0 1.002,0.449 1.002,1.002 l 0,12.245 0,12.244 C 1.002,-0.449 0.553,0 0,0" /></g><g
           transform="translate(60.9395,162.2188)"
           id="g4169"><path
             id="path4171"
             style="fill:#ffffff;fill-opacity:1;fill-rule:nonzero;stroke:none"
             d="m 0,0 c 0,-0.675 -0.549,-1.224 -1.225,-1.224 l -6.678,0 c -0.675,0 -1.225,0.549 -1.225,1.224 l 0,20.036 c 0,0.675 0.55,1.224 1.225,1.224 l 6.678,0 C -0.549,21.26 0,20.711 0,20.036 L 0,0 Z m -1.225,23.264 -6.678,0 c -1.78,0 -3.228,-1.449 -3.228,-3.228 l 0,-20.036 c 0,-1.779 1.448,-3.228 3.228,-3.228 l 6.678,0 c 1.78,0 3.228,1.449 3.228,3.228 l 0,20.036 c 0,1.779 -1.448,3.228 -3.228,3.228" /></g><g
           transform="translate(66.7187,178.6186)"
           id="g4173"><path
             id="path4175"
             style="fill:#ffffff;fill-opacity:1;fill-rule:nonzero;stroke:none"
             d="m 0,0 c -0.553,0 -1.002,-0.449 -1.002,-1.002 l 0,-3.154 c 0,-0.553 0.449,-1.002 1.002,-1.002 0.553,0 1.002,0.449 1.002,1.002 l 0,3.154 C 1.002,-0.449 0.553,0 0,0" /></g><g
           transform="translate(66.7187,171.0117)"
           id="g4177"><path
             id="path4179"
             style="fill:#ffffff;fill-opacity:1;fill-rule:nonzero;stroke:none"
             d="m 0,0 c -0.553,0 -1.002,-0.449 -1.002,-1.002 l 0,-3.154 c 0,-0.553 0.449,-1.002 1.002,-1.002 0.553,0 1.002,0.449 1.002,1.002 l 0,3.154 C 1.002,-0.449 0.553,0 0,0" /></g><g
           transform="translate(82.6272,185.4831)"
           id="g4181"><path
             id="path4183"
             style="fill:#ffffff;fill-opacity:1;fill-rule:nonzero;stroke:none"
             d="m 0,0 c -0.553,0 -1.002,-0.449 -1.002,-1.002 l 0,-10.018 c 0,-0.675 -0.549,-1.224 -1.224,-1.224 l -6.679,0 c -0.675,0 -1.224,0.549 -1.224,1.224 l 0,10.018 c 0,0.553 -0.449,1.002 -1.002,1.002 -0.553,0 -1.002,-0.449 -1.002,-1.002 l 0,-10.018 c 0,-1.78 1.448,-3.229 3.228,-3.229 l 6.679,0 c 0.434,0 0.846,0.089 1.224,0.245 l 0,-11.487 c 0,-0.553 0.449,-1.002 1.002,-1.002 0.553,0 1.002,0.449 1.002,1.002 l 0,14.471 0,10.018 C 1.002,-0.449 0.553,0 0,0" /></g><g
           transform="translate(97.8584,162.2188)"
           id="g4185"><path
             id="path4187"
             style="fill:#ffffff;fill-opacity:1;fill-rule:nonzero;stroke:none"
             d="m 0,0 c 0,-0.675 -0.549,-1.224 -1.225,-1.224 l -6.678,0 c -0.675,0 -1.225,0.549 -1.225,1.224 l 0,20.036 c 0,0.675 0.55,1.224 1.225,1.224 l 6.678,0 C -0.549,21.26 0,20.711 0,20.036 L 0,0 Z m -1.225,23.264 -6.678,0 c -1.78,0 -3.228,-1.449 -3.228,-3.228 l 0,-20.036 c 0,-1.779 1.448,-3.228 3.228,-3.228 l 6.678,0 c 1.78,0 3.228,1.449 3.228,3.228 l 0,20.036 c 0,1.779 -1.448,3.228 -3.228,3.228" /></g></g></g></g></svg>